STARTFONT 2.1
FONT -Misc-Fixed-Bold-R-Normal--13-120-75-75-C-70-ISO10646-1
SIZE 12 75 75
FONTBOUNDINGBOX 7 13 0 -2
STARTPROPERTIES 25
FONTNAME_REGISTRY ""
FOUNDRY "Misc"
FAMILY_NAME "Fixed"
WEIGHT_NAME "Bold"
SLANT "R"
SETWIDTH_NAME "Normal"
ADD_STYLE_NAME ""
PIXEL_SIZE 13
POINT_SIZE 120
RESOLUTION_X 75
RESOLUTION_Y 75
SPACING "C"
AVERAGE_WIDTH 70
CHARSET_REGISTRY "ISO10646"
CHARSET_ENCODING "1"
DESTINATION 1
COPYRIGHT "Public domain font.  Share and enjoy."
_XMBDFED_INFO "Edited with xmbdfed 4.5."
CAP_HEIGHT 9
X_HEIGHT 6
WEIGHT 10
QUAD_WIDTH 7
DEFAULT_CHAR 0
FONT_DESCENT 2
FONT_ASCENT 11
ENDPROPERTIES
CHARS 95
STARTCHAR space
ENCODING 32
SWIDTH 497 0
DWIDTH 7 0
BBX 7 13 0 -2
BITMAP
00
00
00
00
00
00
00
00
00
00
00
00
00
ENDCHAR
STARTCHAR exclam
ENCODING 33
SWIDTH 497 0
DWIDTH 7 0
BBX 7 13 0 -2
BITMAP
00
00
30
30
30
30
30
30
00
30
30
00
00
ENDCHAR
STARTCHAR quotedbl
ENCODING 34
SWIDTH 497 0
DWIDTH 7 0
BBX 7 13 0 -2
BITMAP
00
00
6C
6C
6C
00
00
00
00
00
00
00
00
ENDCHAR
STARTCHAR numbersign
ENCODING 35
SWIDTH 497 0
DWIDTH 7 0
BBX 7 13 0 -2
BITMAP
00
00
28
28
7C
7C
28
7C
7C
28
28
00
00
ENDCHAR
STARTCHAR dollar
ENCODING 36
SWIDTH 497 0
DWIDTH 7 0
BBX 7 13 0 -2
BITMAP
00
00
30
78
B4
B0
78
34
B4
78
30
00
00
ENDCHAR
STARTCHAR percent
ENCODING 37
SWIDTH 497 0
DWIDTH 7 0
BBX 7 13 0 -2
BITMAP
00
00
E4
AC
E8
18
30
60
5C
D4
9C
00
00
ENDCHAR
STARTCHAR ampersand
ENCODING 38
SWIDTH 497 0
DWIDTH 7 0
BBX 7 13 0 -2
BITMAP
00
00
70
D8
D8
D8
70
D4
DC
D8
74
00
00
ENDCHAR
STARTCHAR quotesingle
ENCODING 39
SWIDTH 497 0
DWIDTH 7 0
BBX 7 13 0 -2
BITMAP
00
00
30
30
30
30
00
00
00
00
00
00
00
ENDCHAR
STARTCHAR parenleft
ENCODING 40
SWIDTH 497 0
DWIDTH 7 0
BBX 7 13 0 -2
BITMAP
00
00
18
30
30
60
60
60
30
30
18
00
00
ENDCHAR
STARTCHAR parenright
ENCODING 41
SWIDTH 497 0
DWIDTH 7 0
BBX 7 13 0 -2
BITMAP
00
00
60
30
30
18
18
18
30
30
60
00
00
ENDCHAR
STARTCHAR asterisk
ENCODING 42
SWIDTH 497 0
DWIDTH 7 0
BBX 7 13 0 -2
BITMAP
00
00
00
00
48
30
FC
FC
30
48
00
00
00
ENDCHAR
STARTCHAR plus
ENCODING 43
SWIDTH 497 0
DWIDTH 7 0
BBX 7 13 0 -2
BITMAP
00
00
00
00
30
30
FC
FC
30
30
00
00
00
ENDCHAR
STARTCHAR comma
ENCODING 44
SWIDTH 497 0
DWIDTH 7 0
BBX 7 13 0 -2
BITMAP
00
00
00
00
00
00
00
00
38
38
30
60
00
ENDCHAR
STARTCHAR hyphen
ENCODING 45
SWIDTH 497 0
DWIDTH 7 0
BBX 7 13 0 -2
BITMAP
00
00
00
00
00
00
00
FC
00
00
00
00
00
ENDCHAR
STARTCHAR period
ENCODING 46
SWIDTH 497 0
DWIDTH 7 0
BBX 7 13 0 -2
BITMAP
00
00
00
00
00
00
00
00
00
30
78
30
00
ENDCHAR
STARTCHAR slash
ENCODING 47
SWIDTH 497 0
DWIDTH 7 0
BBX 7 13 0 -2
BITMAP
00
00
0C
0C
18
18
30
60
60
C0
C0
00
00
ENDCHAR
STARTCHAR zero
ENCODING 48
SWIDTH 497 0
DWIDTH 7 0
BBX 7 13 0 -2
BITMAP
00
00
30
48
CC
CC
CC
CC
CC
48
30
00
00
ENDCHAR
STARTCHAR one
ENCODING 49
SWIDTH 497 0
DWIDTH 7 0
BBX 7 13 0 -2
BITMAP
00
00
30
70
B0
30
30
30
30
30
FC
00
00
ENDCHAR
STARTCHAR two
ENCODING 50
SWIDTH 497 0
DWIDTH 7 0
BBX 7 13 0 -2
BITMAP
00
00
78
CC
CC
0C
38
60
C0
C0
FC
00
00
ENDCHAR
STARTCHAR three
ENCODING 51
SWIDTH 497 0
DWIDTH 7 0
BBX 7 13 0 -2
BITMAP
00
00
FC
0C
18
30
78
0C
0C
CC
78
00
00
ENDCHAR
STARTCHAR four
ENCODING 52
SWIDTH 497 0
DWIDTH 7 0
BBX 7 13 0 -2
BITMAP
00
00
0C
1C
3C
6C
CC
CC
FC
0C
0C
00
00
ENDCHAR
STARTCHAR five
ENCODING 53
SWIDTH 497 0
DWIDTH 7 0
BBX 7 13 0 -2
BITMAP
00
00
FC
C0
C0
F8
CC
0C
0C
CC
78
00
00
ENDCHAR
STARTCHAR six
ENCODING 54
SWIDTH 497 0
DWIDTH 7 0
BBX 7 13 0 -2
BITMAP
00
00
78
CC
C0
C0
F8
CC
CC
CC
78
00
00
ENDCHAR
STARTCHAR seven
ENCODING 55
SWIDTH 497 0
DWIDTH 7 0
BBX 7 13 0 -2
BITMAP
00
00
FC
0C
0C
18
18
30
30
60
60
00
00
ENDCHAR
STARTCHAR eight
ENCODING 56
SWIDTH 497 0
DWIDTH 7 0
BBX 7 13 0 -2
BITMAP
00
00
78
CC
CC
CC
78
CC
CC
CC
78
00
00
ENDCHAR
STARTCHAR nine
ENCODING 57
SWIDTH 497 0
DWIDTH 7 0
BBX 7 13 0 -2
BITMAP
00
00
78
CC
CC
CC
7C
0C
0C
CC
78
00
00
ENDCHAR
STARTCHAR colon
ENCODING 58
SWIDTH 497 0
DWIDTH 7 0
BBX 7 13 0 -2
BITMAP
00
00
00
00
30
78
30
00
00
30
78
30
00
ENDCHAR
STARTCHAR semicolon
ENCODING 59
SWIDTH 497 0
DWIDTH 7 0
BBX 7 13 0 -2
BITMAP
00
00
00
00
30
78
30
00
38
38
30
60
00
ENDCHAR
STARTCHAR less
ENCODING 60
SWIDTH 497 0
DWIDTH 7 0
BBX 7 13 0 -2
BITMAP
00
00
0C
18
30
60
C0
60
30
18
0C
00
00
ENDCHAR
STARTCHAR equal
ENCODING 61
SWIDTH 497 0
DWIDTH 7 0
BBX 7 13 0 -2
BITMAP
00
00
00
00
00
FC
00
00
FC
00
00
00
00
ENDCHAR
STARTCHAR greater
ENCODING 62
SWIDTH 497 0
DWIDTH 7 0
BBX 7 13 0 -2
BITMAP
00
00
C0
60
30
18
0C
18
30
60
C0
00
00
ENDCHAR
STARTCHAR question
ENCODING 63
SWIDTH 497 0
DWIDTH 7 0
BBX 7 13 0 -2
BITMAP
00
00
78
CC
CC
0C
38
30
00
30
30
00
00
ENDCHAR
STARTCHAR at
ENCODING 64
SWIDTH 497 0
DWIDTH 7 0
BBX 7 13 0 -2
BITMAP
00
00
78
8C
8C
BC
AC
BC
80
8C
78
00
00
ENDCHAR
STARTCHAR A
ENCODING 65
SWIDTH 497 0
DWIDTH 7 0
BBX 7 13 0 -2
BITMAP
00
00
78
CC
CC
CC
FC
CC
CC
CC
CC
00
00
ENDCHAR
STARTCHAR B
ENCODING 66
SWIDTH 497 0
DWIDTH 7 0
BBX 7 13 0 -2
BITMAP
00
00
F8
CC
CC
CC
F8
CC
CC
CC
F8
00
00
ENDCHAR
STARTCHAR C
ENCODING 67
SWIDTH 497 0
DWIDTH 7 0
BBX 7 13 0 -2
BITMAP
00
00
78
CC
C0
C0
C0
C0
C0
CC
78
00
00
ENDCHAR
STARTCHAR D
ENCODING 68
SWIDTH 497 0
DWIDTH 7 0
BBX 7 13 0 -2
BITMAP
00
00
F8
CC
CC
CC
CC
CC
CC
CC
F8
00
00
ENDCHAR
STARTCHAR E
ENCODING 69
SWIDTH 497 0
DWIDTH 7 0
BBX 7 13 0 -2
BITMAP
00
00
FC
C0
C0
C0
F8
C0
C0
C0
FC
00
00
ENDCHAR
STARTCHAR F
ENCODING 70
SWIDTH 497 0
DWIDTH 7 0
BBX 7 13 0 -2
BITMAP
00
00
FC
C0
C0
C0
F8
C0
C0
C0
C0
00
00
ENDCHAR
STARTCHAR G
ENCODING 71
SWIDTH 497 0
DWIDTH 7 0
BBX 7 13 0 -2
BITMAP
00
00
78
CC
C0
C0
DC
CC
CC
CC
7C
00
00
ENDCHAR
STARTCHAR H
ENCODING 72
SWIDTH 497 0
DWIDTH 7 0
BBX 7 13 0 -2
BITMAP
00
00
CC
CC
CC
CC
FC
CC
CC
CC
CC
00
00
ENDCHAR
STARTCHAR I
ENCODING 73
SWIDTH 497 0
DWIDTH 7 0
BBX 7 13 0 -2
BITMAP
00
00
FC
30
30
30
30
30
30
30
FC
00
00
ENDCHAR
STARTCHAR J
ENCODING 74
SWIDTH 497 0
DWIDTH 7 0
BBX 7 13 0 -2
BITMAP
00
00
0C
0C
0C
0C
0C
0C
0C
CC
78
00
00
ENDCHAR
STARTCHAR K
ENCODING 75
SWIDTH 497 0
DWIDTH 7 0
BBX 7 13 0 -2
BITMAP
00
00
C4
CC
D8
F0
E0
F0
D8
CC
C4
00
00
ENDCHAR
STARTCHAR L
ENCODING 76
SWIDTH 497 0
DWIDTH 7 0
BBX 7 13 0 -2
BITMAP
00
00
C0
C0
C0
C0
C0
C0
C0
C0
FC
00
00
ENDCHAR
STARTCHAR M
ENCODING 77
SWIDTH 497 0
DWIDTH 7 0
BBX 7 13 0 -2
BITMAP
00
00
84
CC
FC
FC
CC
CC
CC
CC
CC
00
00
ENDCHAR
STARTCHAR N
ENCODING 78
SWIDTH 497 0
DWIDTH 7 0
BBX 7 13 0 -2
BITMAP
00
00
CC
CC
EC
EC
FC
DC
DC
CC
CC
00
00
ENDCHAR
STARTCHAR O
ENCODING 79
SWIDTH 497 0
DWIDTH 7 0
BBX 7 13 0 -2
BITMAP
00
00
78
CC
CC
CC
CC
CC
CC
CC
78
00
00
ENDCHAR
STARTCHAR P
ENCODING 80
SWIDTH 497 0
DWIDTH 7 0
BBX 7 13 0 -2
BITMAP
00
00
F8
CC
CC
CC
F8
C0
C0
C0
C0
00
00
ENDCHAR
STARTCHAR Q
ENCODING 81
SWIDTH 497 0
DWIDTH 7 0
BBX 7 13 0 -2
BITMAP
00
00
78
CC
CC
CC
CC
CC
EC
DC
78
0C
00
ENDCHAR
STARTCHAR R
ENCODING 82
SWIDTH 497 0
DWIDTH 7 0
BBX 7 13 0 -2
BITMAP
00
00
F8
CC
CC
CC
F8
F0
D8
CC
C4
00
00
ENDCHAR
STARTCHAR S
ENCODING 83
SWIDTH 497 0
DWIDTH 7 0
BBX 7 13 0 -2
BITMAP
00
00
78
CC
C0
C0
78
0C
0C
CC
78
00
00
ENDCHAR
STARTCHAR T
ENCODING 84
SWIDTH 497 0
DWIDTH 7 0
BBX 7 13 0 -2
BITMAP
00
00
FC
30
30
30
30
30
30
30
30
00
00
ENDCHAR
STARTCHAR U
ENCODING 85
SWIDTH 497 0
DWIDTH 7 0
BBX 7 13 0 -2
BITMAP
00
00
CC
CC
CC
CC
CC
CC
CC
CC
78
00
00
ENDCHAR
STARTCHAR V
ENCODING 86
SWIDTH 497 0
DWIDTH 7 0
BBX 7 13 0 -2
BITMAP
00
00
CC
CC
CC
48
48
78
30
30
30
00
00
ENDCHAR
STARTCHAR W
ENCODING 87
SWIDTH 497 0
DWIDTH 7 0
BBX 7 13 0 -2
BITMAP
00
00
CC
CC
CC
CC
CC
FC
FC
CC
84
00
00
ENDCHAR
STARTCHAR X
ENCODING 88
SWIDTH 497 0
DWIDTH 7 0
BBX 7 13 0 -2
BITMAP
00
00
84
CC
48
78
30
78
48
CC
84
00
00
ENDCHAR
STARTCHAR Y
ENCODING 89
SWIDTH 497 0
DWIDTH 7 0
BBX 7 13 0 -2
BITMAP
00
00
CC
CC
78
78
30
30
30
30
30
00
00
ENDCHAR
STARTCHAR Z
ENCODING 90
SWIDTH 497 0
DWIDTH 7 0
BBX 7 13 0 -2
BITMAP
00
00
FC
0C
0C
18
30
60
C0
C0
FC
00
00
ENDCHAR
STARTCHAR bracketleft
ENCODING 91
SWIDTH 497 0
DWIDTH 7 0
BBX 7 13 0 -2
BITMAP
00
00
78
60
60
60
60
60
60
60
78
00
00
ENDCHAR
STARTCHAR backslash
ENCODING 92
SWIDTH 497 0
DWIDTH 7 0
BBX 7 13 0 -2
BITMAP
00
00
C0
C0
60
60
30
18
18
0C
0C
00
00
ENDCHAR
STARTCHAR bracketright
ENCODING 93
SWIDTH 497 0
DWIDTH 7 0
BBX 7 13 0 -2
BITMAP
00
00
78
18
18
18
18
18
18
18
78
00
00
ENDCHAR
STARTCHAR asciicircum
ENCODING 94
SWIDTH 497 0
DWIDTH 7 0
BBX 7 13 0 -2
BITMAP
00
00
30
78
CC
84
00
00
00
00
00
00
00
ENDCHAR
STARTCHAR underscore
ENCODING 95
SWIDTH 497 0
DWIDTH 7 0
BBX 7 13 0 -2
BITMAP
00
00
00
00
00
00
00
00
00
00
FC
FC
00
ENDCHAR
STARTCHAR grave
ENCODING 96
SWIDTH 497 0
DWIDTH 7 0
BBX 7 13 0 -2
BITMAP
00
60
30
18
00
00
00
00
00
00
00
00
00
ENDCHAR
STARTCHAR a
ENCODING 97
SWIDTH 497 0
DWIDTH 7 0
BBX 7 13 0 -2
BITMAP
00
00
00
00
00
78
0C
7C
CC
CC
7C
00
00
ENDCHAR
STARTCHAR b
ENCODING 98
SWIDTH 497 0
DWIDTH 7 0
BBX 7 13 0 -2
BITMAP
00
00
C0
C0
C0
F8
CC
CC
CC
CC
F8
00
00
ENDCHAR
STARTCHAR c
ENCODING 99
SWIDTH 497 0
DWIDTH 7 0
BBX 7 13 0 -2
BITMAP
00
00
00
00
00
78
CC
C0
C0
CC
78
00
00
ENDCHAR
STARTCHAR d
ENCODING 100
SWIDTH 497 0
DWIDTH 7 0
BBX 7 13 0 -2
BITMAP
00
00
0C
0C
0C
7C
CC
CC
CC
CC
7C
00
00
ENDCHAR
STARTCHAR e
ENCODING 101
SWIDTH 497 0
DWIDTH 7 0
BBX 7 13 0 -2
BITMAP
00
00
00
00
00
78
CC
FC
C0
CC
78
00
00
ENDCHAR
STARTCHAR f
ENCODING 102
SWIDTH 497 0
DWIDTH 7 0
BBX 7 13 0 -2
BITMAP
00
00
38
6C
60
60
F0
60
60
60
60
00
00
ENDCHAR
STARTCHAR g
ENCODING 103
SWIDTH 497 0
DWIDTH 7 0
BBX 7 13 0 -2
BITMAP
00
00
00
00
00
74
CC
CC
78
C0
78
CC
78
ENDCHAR
STARTCHAR h
ENCODING 104
SWIDTH 497 0
DWIDTH 7 0
BBX 7 13 0 -2
BITMAP
00
00
C0
C0
C0
F8
CC
CC
CC
CC
CC
00
00
ENDCHAR
STARTCHAR i
ENCODING 105
SWIDTH 497 0
DWIDTH 7 0
BBX 7 13 0 -2
BITMAP
00
00
30
30
00
70
30
30
30
30
FC
00
00
ENDCHAR
STARTCHAR j
ENCODING 106
SWIDTH 497 0
DWIDTH 7 0
BBX 7 13 0 -2
BITMAP
00
00
0C
0C
00
0C
0C
0C
0C
0C
0C
CC
78
ENDCHAR
STARTCHAR k
ENCODING 107
SWIDTH 497 0
DWIDTH 7 0
BBX 7 13 0 -2
BITMAP
00
00
C0
C0
C0
CC
D8
F0
F0
D8
CC
00
00
ENDCHAR
STARTCHAR l
ENCODING 108
SWIDTH 497 0
DWIDTH 7 0
BBX 7 13 0 -2
BITMAP
00
00
70
30
30
30
30
30
30
30
FC
00
00
ENDCHAR
STARTCHAR m
ENCODING 109
SWIDTH 497 0
DWIDTH 7 0
BBX 7 13 0 -2
BITMAP
00
00
00
00
00
D8
FC
FC
CC
CC
CC
00
00
ENDCHAR
STARTCHAR n
ENCODING 110
SWIDTH 497 0
DWIDTH 7 0
BBX 7 13 0 -2
BITMAP
00
00
00
00
00
F8
CC
CC
CC
CC
CC
00
00
ENDCHAR
STARTCHAR o
ENCODING 111
SWIDTH 497 0
DWIDTH 7 0
BBX 7 13 0 -2
BITMAP
00
00
00
00
00
78
CC
CC
CC
CC
78
00
00
ENDCHAR
STARTCHAR p
ENCODING 112
SWIDTH 497 0
DWIDTH 7 0
BBX 7 13 0 -2
BITMAP
00
00
00
00
00
F8
CC
CC
CC
F8
C0
C0
C0
ENDCHAR
STARTCHAR q
ENCODING 113
SWIDTH 497 0
DWIDTH 7 0
BBX 7 13 0 -2
BITMAP
00
00
00
00
00
7C
CC
CC
CC
7C
0C
0C
0C
ENDCHAR
STARTCHAR r
ENCODING 114
SWIDTH 497 0
DWIDTH 7 0
BBX 7 13 0 -2
BITMAP
00
00
00
00
00
F8
CC
C0
C0
C0
C0
00
00
ENDCHAR
STARTCHAR s
ENCODING 115
SWIDTH 497 0
DWIDTH 7 0
BBX 7 13 0 -2
BITMAP
00
00
00
00
00
78
CC
60
18
CC
78
00
00
ENDCHAR
STARTCHAR t
ENCODING 116
SWIDTH 497 0
DWIDTH 7 0
BBX 7 13 0 -2
BITMAP
00
00
00
60
60
F8
60
60
60
6C
38
00
00
ENDCHAR
STARTCHAR u
ENCODING 117
SWIDTH 497 0
DWIDTH 7 0
BBX 7 13 0 -2
BITMAP
00
00
00
00
00
CC
CC
CC
CC
CC
7C
00
00
ENDCHAR
STARTCHAR v
ENCODING 118
SWIDTH 497 0
DWIDTH 7 0
BBX 7 13 0 -2
BITMAP
00
00
00
00
00
CC
CC
CC
78
78
30
00
00
ENDCHAR
STARTCHAR w
ENCODING 119
SWIDTH 497 0
DWIDTH 7 0
BBX 7 13 0 -2
BITMAP
00
00
00
00
00
CC
CC
CC
FC
FC
48
00
00
ENDCHAR
STARTCHAR x
ENCODING 120
SWIDTH 497 0
DWIDTH 7 0
BBX 7 13 0 -2
BITMAP
00
00
00
00
00
CC
CC
78
78
CC
CC
00
00
ENDCHAR
STARTCHAR y
ENCODING 121
SWIDTH 497 0
DWIDTH 7 0
BBX 7 13 0 -2
BITMAP
00
00
00
00
00
CC
CC
CC
CC
7C
0C
CC
78
ENDCHAR
STARTCHAR z
ENCODING 122
SWIDTH 497 0
DWIDTH 7 0
BBX 7 13 0 -2
BITMAP
00
00
00
00
00
FC
0C
18
60
C0
FC
00
00
ENDCHAR
STARTCHAR braceleft
ENCODING 123
SWIDTH 497 0
DWIDTH 7 0
BBX 7 13 0 -2
BITMAP
00
00
38
60
60
30
60
30
60
60
38
00
00
ENDCHAR
STARTCHAR bar
ENCODING 124
SWIDTH 497 0
DWIDTH 7 0
BBX 7 13 0 -2
BITMAP
00
00
30
30
30
30
30
30
30
30
30
00
00
ENDCHAR
STARTCHAR braceright
ENCODING 125
SWIDTH 497 0
DWIDTH 7 0
BBX 7 13 0 -2
BITMAP
00
00
70
18
18
30
18
30
18
18
70
00
00
ENDCHAR
STARTCHAR asciitilde
ENCODING 126
SWIDTH 497 0
DWIDTH 7 0
BBX 7 13 0 -2
BITMAP
00
00
64
FC
98
00
00
00
00
00
00
00
00
ENDCHAR
ENDFONT
